<svg id="alarm" xmlns="http://www.w3.org/2000/svg" width="2362" height="2362" viewBox="0 0 2362 2362">
  <metadata><?xpacket begin="﻿" id="W5M0MpCehiHzreSzNTczkc9d"?>
<x:xmpmeta xmlns:x="adobe:ns:meta/" x:xmptk="Adobe XMP Core 5.6-c138 79.159824, 2016/09/14-01:09:01        ">
   <rdf:RDF xmlns:rdf="http://www.w3.org/1999/02/22-rdf-syntax-ns#">
      <rdf:Description rdf:about=""/>
   </rdf:RDF>
</x:xmpmeta>
                                                                                                    
                                                                                                    
                                                                                                    
                                                                                                    
                                                                                                    
                                                                                                    
                                                                                                    
                                                                                                    
                                                                                                    
                                                                                                    
                                                                                                    
                                                                                                    
                                                                                                    
                                                                                                    
                                                                                                    
                                                                                                    
                                                                                                    
                                                                                                    
                                                                                                    
                                                                                                    
                           
<?xpacket end="w"?></metadata>
<defs>
    <style>
      .cls-1, .cls-3 {
        fill: #be3a1d;
      }

      .cls-2, .cls-5 {
        fill: none;
        stroke: #f5ebdc;
        stroke-width: 50px;
      }

      .cls-3, .cls-4, .cls-5 {
        fill-rule: evenodd;
      }

      .cls-4, .cls-6 {
        fill: #f5ebdc;
      }
    </style>
  </defs>
  <circle class="cls-1" cx="1151" cy="1159" r="936"/>
  <circle class="cls-2" cx="1181" cy="574" r="130"/>
  <circle class="cls-2" cx="1181" cy="1601" r="173"/>
  <path id="Shape_25_copy" data-name="Shape 25 copy" class="cls-3" d="M940,695s120.18-77.408,235-86c105.27-7.877,206,53,206,53s126.41,57.767,174,194c59.96,171.64,44,430,44,430s16.62,66.96,49,126c32.61,59.46,81,111,81,111s8.53,78.43-92,78-953,0-953,0-74.312-38.67-47-72c9.879-12.05,33-30.78,48-50a528.235,528.235,0,0,0,45-69"/>
  <path id="Ellipse_11_copy" data-name="Ellipse 11 copy" class="cls-4" d="M714.172,677C898.829,677,1048,826.013,1048,1009.83S898.829,1343.7,714.172,1344.99C528.8,1346.28,378,1197.28,378,1012.17S528.8,677,714.172,677Z"/>
  <path class="cls-3" d="M713.457,738C864.214,738,986,859.645,986,1009.7s-121.786,272.55-272.543,273.6C562.117,1284.36,439,1162.72,439,1011.61S562.117,738,713.457,738Z"/>
  <path class="cls-5" d="M940,695s120.18-77.408,235-86c105.27-7.877,206,53,206,53s126.41,57.767,174,194c59.96,171.64,44,430,44,430s16.62,66.96,49,126c32.61,59.46,81,111,81,111s8.53,78.43-92,78-953,0-953,0-74.312-38.67-47-72c9.879-12.05,33-30.78,48-50a528.235,528.235,0,0,0,45-69"/>
  <g>
    <rect id="Rounded_Rectangle_2" data-name="Rounded Rectangle 2" class="cls-6" x="686" y="942" width="54" height="239" rx="25" ry="25"/>
    <circle class="cls-6" cx="713" cy="886" r="27"/>
  </g>
</svg>
