<svg id="bahan_segar" data-name="bahan segar" xmlns="http://www.w3.org/2000/svg" width="2362" height="2362" viewBox="0 0 2362 2362">
  <metadata><?xpacket begin="﻿" id="W5M0MpCehiHzreSzNTczkc9d"?>
<x:xmpmeta xmlns:x="adobe:ns:meta/" x:xmptk="Adobe XMP Core 5.6-c138 79.159824, 2016/09/14-01:09:01        ">
   <rdf:RDF xmlns:rdf="http://www.w3.org/1999/02/22-rdf-syntax-ns#">
      <rdf:Description rdf:about=""/>
   </rdf:RDF>
</x:xmpmeta>
                                                                                                    
                                                                                                    
                                                                                                    
                                                                                                    
                                                                                                    
                                                                                                    
                                                                                                    
                                                                                                    
                                                                                                    
                                                                                                    
                                                                                                    
                                                                                                    
                                                                                                    
                                                                                                    
                                                                                                    
                                                                                                    
                                                                                                    
                                                                                                    
                                                                                                    
                                                                                                    
                           
<?xpacket end="w"?></metadata>
<defs>
    <style>
      .cls-1, .cls-2, .cls-3, .cls-4 {
        fill: #be3a1d;
      }

      .cls-2, .cls-3, .cls-4 {
        stroke: #f5ebdc;
      }

      .cls-2 {
        stroke-width: 50px;
      }

      .cls-2, .cls-4, .cls-6 {
        fill-rule: evenodd;
      }

      .cls-3, .cls-4 {
        stroke-width: 70px;
      }

      .cls-4 {
        stroke-linecap: round;
        stroke-linejoin: round;
      }

      .cls-5, .cls-6 {
        fill: #f5ebdc;
      }
    </style>
  </defs>
  <circle id="Ellipse_14_copy" data-name="Ellipse 14 copy" class="cls-1" cx="1181.5" cy="1180.5" r="1062.5"/>
  <path class="cls-2" d="M912.951,979.062S1031.21,709.25,1100.01,699.08c28.82-4.261,60.67-4.993,81.2-18.858,28.47-19.228,40.27-54.881,37.7-81.239-1.83-18.789-12.35-44.077-30.45-58.027-25.6-19.732-60.9-24.662-60.9-24.662V423.451L1488.62,422l-1.45,94.294s-92.24,26.163-88.45,82.689c1.74,26.058,11.62,54.884,26.1,69.633,16.93,17.246,39.55,18.772,53.65,27.563,12.42,7.746,56.7,43,94.25,97.2,41.5,59.91,80.57,140.7,87,182.786,3.33,21.768,9.91,46.579,11.6,73.989,4.55,73.51-1.45,171.18-1.45,171.18l-14.5,137.81L868,1378Z"/>
  <circle class="cls-3" cx="892" cy="1131" r="319"/>
  <path class="cls-4" d="M830,1237l415-385,690,388Z"/>
  <rect id="Rounded_Rectangle_17" data-name="Rounded Rectangle 17" class="cls-5" x="369" y="1177" width="1624" height="298" rx="40" ry="40"/>
  <path class="cls-6" d="M496,1450v96l123,367s15.962,62.21,47,64,1022,0,1022,0,31.5-.51,48-39,132-387,132-387l-3-94Z"/>
  <rect id="Rounded_Rectangle_18" data-name="Rounded Rectangle 18" class="cls-1" x="725" y="1396" width="122" height="351" rx="35" ry="35"/>
  <rect id="Rounded_Rectangle_18_copy" data-name="Rounded Rectangle 18 copy" class="cls-1" x="998" y="1396" width="122" height="351" rx="35" ry="35"/>
  <rect id="Rounded_Rectangle_18_copy_2" data-name="Rounded Rectangle 18 copy 2" class="cls-1" x="1271" y="1396" width="122" height="351" rx="35" ry="35"/>
  <rect id="Rounded_Rectangle_18_copy_3" data-name="Rounded Rectangle 18 copy 3" class="cls-1" x="1544" y="1396" width="122" height="351" rx="35" ry="35"/>
</svg>
