<svg xmlns="http://www.w3.org/2000/svg" width="2362" height="2362" viewBox="0 0 2362 2362">
  <metadata><?xpacket begin="﻿" id="W5M0MpCehiHzreSzNTczkc9d"?>
<x:xmpmeta xmlns:x="adobe:ns:meta/" x:xmptk="Adobe XMP Core 5.6-c138 79.159824, 2016/09/14-01:09:01        ">
   <rdf:RDF xmlns:rdf="http://www.w3.org/1999/02/22-rdf-syntax-ns#">
      <rdf:Description rdf:about=""/>
   </rdf:RDF>
</x:xmpmeta>
                                                                                                    
                                                                                                    
                                                                                                    
                                                                                                    
                                                                                                    
                                                                                                    
                                                                                                    
                                                                                                    
                                                                                                    
                                                                                                    
                                                                                                    
                                                                                                    
                                                                                                    
                                                                                                    
                                                                                                    
                                                                                                    
                                                                                                    
                                                                                                    
                                                                                                    
                                                                                                    
                           
<?xpacket end="w"?></metadata>
<defs>
    <style>
      .cls-1 {
        fill: #be3a1d;
      }

      .cls-2 {
        font-size: 300px;
        fill: #f5ebdc;
        text-anchor: middle;
        font-family: "Arial Rounded MT Bold";
      }

      .cls-3, .cls-4 {
        fill: none;
        stroke: #f5ebdc;
        fill-rule: evenodd;
      }

      .cls-3 {
        stroke-width: 50px;
      }

      .cls-4 {
        stroke-width: 25px;
      }
    </style>
  </defs>
  <circle id="Ellipse_14_copy_3" data-name="Ellipse 14 copy 3" class="cls-1" cx="1181.5" cy="1180.5" r="1062.5"/>
  <text id="Rp" class="cls-2" x="1172.346" y="1603.635"><tspan x="1172.346">Rp</tspan></text>
  <path class="cls-3" d="M919,835S762.629,966.012,647,1145c-74.12,114.73-116.158,255.76-140,373-63.751,313.49,418.418,421.17,584,436,181.69,16.27,359-40,359-40s228.18-47.73,328-172c155.11-193.1,44.22-440.9-86-626-110.9-157.639-270-287-270-287s-129.73,61.53-253,63C1040.86,893.528,919,835,919,835Z"/>
  <path class="cls-3" d="M916,852s3.449-9.917,0-13c-75.894-67.832-207.658-194.081-129-270,78.128-75.408,214.27-148.774,281-153s101.43,4.5,127,33c9.35,10.422,36.16,46.127,40,84,6.65,65.685-14,143-14,143"/>
  <path class="cls-3" d="M1217,487s194.15-8.676,284,46c21.86,13.3,37.69,44.845,38,73,0.39,34.95-18,66-18,66l-99,187"/>
  <path class="cls-4" d="M1212,920s-24.59,195.15,34,232,132.95,25.47,161-12c20.06-26.8,14.64-94.75-10-148-14.36-31.03-44.5-85.839-77-96C1268.4,879.868,1212,920,1212,920Z"/>
  <path id="Shape_36_copy" data-name="Shape 36 copy" class="cls-4" d="M1151.71,921.266s-70.14,183.134-25.96,235.4c47.29,55.96,123.41,57.59,156.39,18.69,23.37-27.58,25.48-102.85,11.46-156.69-8.51-32.725-25.73-84.114-50.11-98.091C1204.97,898.493,1151.71,921.266,1151.71,921.266Z"/>
</svg>
