<svg id="siap_makan" data-name="siap makan" xmlns="http://www.w3.org/2000/svg" width="2362" height="2362" viewBox="0 0 2362 2362">
  <metadata><?xpacket begin="﻿" id="W5M0MpCehiHzreSzNTczkc9d"?>
<x:xmpmeta xmlns:x="adobe:ns:meta/" x:xmptk="Adobe XMP Core 5.6-c138 79.159824, 2016/09/14-01:09:01        ">
   <rdf:RDF xmlns:rdf="http://www.w3.org/1999/02/22-rdf-syntax-ns#">
      <rdf:Description rdf:about=""/>
   </rdf:RDF>
</x:xmpmeta>
                                                                                                    
                                                                                                    
                                                                                                    
                                                                                                    
                                                                                                    
                                                                                                    
                                                                                                    
                                                                                                    
                                                                                                    
                                                                                                    
                                                                                                    
                                                                                                    
                                                                                                    
                                                                                                    
                                                                                                    
                                                                                                    
                                                                                                    
                                                                                                    
                                                                                                    
                                                                                                    
                           
<?xpacket end="w"?></metadata>
<defs>
    <style>
      .cls-1 {
        fill: #be3a1d;
      }

      .cls-2, .cls-3 {
        fill: #f5ebdc;
      }

      .cls-3 {
        fill-rule: evenodd;
      }
    </style>
  </defs>
  <circle id="Ellipse_14_copy_4" data-name="Ellipse 14 copy 4" class="cls-1" cx="1181.5" cy="1180.5" r="1062.5"/>
  <rect id="Rounded_Rectangle_20" data-name="Rounded Rectangle 20" class="cls-2" x="731" y="1155" width="1246" height="115" rx="10" ry="10"/>
  <path class="cls-3" d="M829,1124s-7.234-163.975,43-270c65.274-137.77,194-230,194-230s56.28-34.6,113-55c57.28-20.6,121-28,121-28s-21.66-13.338-27-34c-6.11-23.638-2-54-2-54s9.51-30.741,35-48c22.3-15.1,61-17,61-17s38.2,10.767,56,35c18.19,24.762,20,58,20,58s-4,19.745-10,33-18,25-18,25l92,22s205.85,82.519,299,223c92.85,140.018,73,338,73,338l-877,4s-4.328-166.528,63-290c81.76-149.941,238-262,238-262l-119,50s-46.42,28.514-87,67c-40.66,38.561-75.48,87.122-90,115-75.606,145.129-84,319-84,319Z"/>
  <path class="cls-3" d="M382,1417l212-35,72,387-281,54Z"/>
  <path class="cls-3" d="M634,1387l184-65,307-13s22.34,5.23,29,14c6.47,8.51,9.32,23.42,6,33-1.93,5.59-3.97,14.46-10,19-15.07,11.34-40,15-40,15l-185,51,258,19,294-115s34.92-9.85,43,4c4.59,7.87,15.57,22.52,15,34a47.479,47.479,0,0,1-5.6,19.24A66.856,66.856,0,0,1,1519,1417s-120.17,84.05-219,146a1382.073,1382.073,0,0,1-124,69l-421-2s-12.5-2.8-28,11c-20.338,18.11-45,54-45,54Z"/>
</svg>
